<svg width="637" height="170" viewBox="0 0 637 170" fill="none" xmlns="http://www.w3.org/2000/svg">
<path d="M47.52 115.68C34 115.68 23.68 111.92 16.56 104.4C9.52 96.88 6 86.2 6 72.36C6 65.48 7.08 59.36 9.24 54C11.4 48.56 14.36 44 18.12 40.32C21.88 36.56 26.36 33.72 31.56 31.8C36.76 29.88 42.4 28.92 48.48 28.92C52 28.92 55.2 29.2 58.08 29.76C60.96 30.24 63.48 30.84 65.64 31.56C67.8 32.2 69.6 32.88 71.04 33.6C72.48 34.32 73.52 34.88 74.16 35.28L68.76 50.4C66.2 49.04 63.2 47.88 59.76 46.92C56.4 45.96 52.56 45.48 48.24 45.48C45.36 45.48 42.52 45.96 39.72 46.92C37 47.88 34.56 49.44 32.4 51.6C30.32 53.68 28.64 56.4 27.36 59.76C26.08 63.12 25.44 67.2 25.44 72C25.44 75.84 25.84 79.44 26.64 82.8C27.52 86.08 28.88 88.92 30.72 91.32C32.64 93.72 35.12 95.64 38.16 97.08C41.2 98.44 44.88 99.12 49.2 99.12C51.92 99.12 54.36 98.96 56.52 98.64C58.68 98.32 60.6 97.96 62.28 97.56C63.96 97.08 65.44 96.56 66.72 96C68 95.44 69.16 94.92 70.2 94.44L75.36 109.44C72.72 111.04 69 112.48 64.2 113.76C59.4 115.04 53.84 115.68 47.52 115.68ZM100.086 72.36C100.086 76.44 100.566 80.12 101.526 83.4C102.566 86.68 104.006 89.52 105.846 91.92C107.766 94.24 110.086 96.04 112.806 97.32C115.526 98.6 118.646 99.24 122.166 99.24C125.606 99.24 128.686 98.6 131.406 97.32C134.206 96.04 136.526 94.24 138.366 91.92C140.286 89.52 141.726 86.68 142.686 83.4C143.726 80.12 144.246 76.44 144.246 72.36C144.246 68.28 143.726 64.6 142.686 61.32C141.726 57.96 140.286 55.12 138.366 52.8C136.526 50.4 134.206 48.56 131.406 47.28C128.686 46 125.606 45.36 122.166 45.36C118.646 45.36 115.526 46.04 112.806 47.4C110.086 48.68 107.766 50.52 105.846 52.92C104.006 55.24 102.566 58.08 101.526 61.44C100.566 64.72 100.086 68.36 100.086 72.36ZM163.566 72.36C163.566 79.48 162.486 85.76 160.326 91.2C158.246 96.56 155.366 101.08 151.686 104.76C148.006 108.36 143.606 111.08 138.486 112.92C133.446 114.76 128.006 115.68 122.166 115.68C116.486 115.68 111.126 114.76 106.086 112.92C101.046 111.08 96.6456 108.36 92.8856 104.76C89.1256 101.08 86.1656 96.56 84.0056 91.2C81.8456 85.76 80.7656 79.48 80.7656 72.36C80.7656 65.24 81.8856 59 84.1256 53.64C86.3656 48.2 89.3656 43.64 93.1256 39.96C96.9656 36.28 101.366 33.52 106.326 31.68C111.366 29.84 116.646 28.92 122.166 28.92C127.846 28.92 133.206 29.84 138.246 31.68C143.286 33.52 147.686 36.28 151.446 39.96C155.206 43.64 158.166 48.2 160.326 53.64C162.486 59 163.566 65.24 163.566 72.36ZM201.25 30.84C202.69 33.48 204.33 36.76 206.17 40.68C208.09 44.52 210.05 48.72 212.05 53.28C214.13 57.76 216.17 62.36 218.17 67.08C220.17 71.8 222.05 76.24 223.81 80.4C225.57 76.24 227.45 71.8 229.45 67.08C231.45 62.36 233.45 57.76 235.45 53.28C237.53 48.72 239.49 44.52 241.33 40.68C243.25 36.76 244.93 33.48 246.37 30.84H263.41C264.21 36.36 264.93 42.56 265.57 49.44C266.29 56.24 266.89 63.36 267.37 70.8C267.93 78.16 268.41 85.56 268.81 93C269.29 100.44 269.69 107.44 270.01 114H251.77C251.53 105.92 251.21 97.12 250.81 87.6C250.41 78.08 249.81 68.48 249.01 58.8C247.57 62.16 245.97 65.88 244.21 69.96C242.45 74.04 240.69 78.12 238.93 82.2C237.25 86.28 235.61 90.2 234.01 93.96C232.41 97.64 231.05 100.8 229.93 103.44H216.85C215.73 100.8 214.37 97.64 212.77 93.96C211.17 90.2 209.49 86.28 207.73 82.2C206.05 78.12 204.33 74.04 202.57 69.96C200.81 65.88 199.21 62.16 197.77 58.8C196.97 68.48 196.37 78.08 195.97 87.6C195.57 97.12 195.25 105.92 195.01 114H176.77C177.09 107.44 177.45 100.44 177.85 93C178.33 85.56 178.81 78.16 179.29 70.8C179.85 63.36 180.45 56.24 181.09 49.44C181.81 42.56 182.57 36.36 183.37 30.84H201.25ZM286.866 114V30.84H343.026V46.56H305.586V62.88H338.826V78.24H305.586V98.28H345.786V114H286.866ZM378.359 98.76C379.239 98.84 380.239 98.92 381.359 99C382.559 99 383.959 99 385.559 99C394.919 99 401.839 96.64 406.319 91.92C410.879 87.2 413.159 80.68 413.159 72.36C413.159 63.64 410.999 57.04 406.679 52.56C402.359 48.08 395.519 45.84 386.159 45.84C384.879 45.84 383.559 45.88 382.199 45.96C380.839 45.96 379.559 46.04 378.359 46.2V98.76ZM432.479 72.36C432.479 79.56 431.359 85.84 429.119 91.2C426.879 96.56 423.679 101 419.519 104.52C415.439 108.04 410.439 110.68 404.519 112.44C398.599 114.2 391.959 115.08 384.599 115.08C381.239 115.08 377.319 114.92 372.839 114.6C368.359 114.36 363.959 113.8 359.639 112.92V31.92C363.959 31.12 368.439 30.6 373.079 30.36C377.799 30.04 381.839 29.88 385.199 29.88C392.319 29.88 398.759 30.68 404.519 32.28C410.359 33.88 415.359 36.4 419.519 39.84C423.679 43.28 426.879 47.68 429.119 53.04C431.359 58.4 432.479 64.84 432.479 72.36ZM448.116 30.84H466.836V114H448.116V30.84ZM541.764 114C540.884 111.12 539.884 108.16 538.764 105.12C537.724 102.08 536.684 99.04 535.644 96H503.244C502.204 99.04 501.124 102.08 500.004 105.12C498.964 108.16 498.004 111.12 497.124 114H477.684C480.804 105.04 483.764 96.76 486.564 89.16C489.364 81.56 492.084 74.4 494.724 67.68C497.444 60.96 500.084 54.6 502.644 48.6C505.284 42.52 508.004 36.6 510.804 30.84H528.684C531.404 36.6 534.084 42.52 536.724 48.6C539.364 54.6 542.004 60.96 544.644 67.68C547.364 74.4 550.124 81.56 552.924 89.16C555.724 96.76 558.684 105.04 561.804 114H541.764ZM519.324 49.68C518.924 50.88 518.324 52.52 517.524 54.6C516.724 56.68 515.804 59.08 514.764 61.8C513.724 64.52 512.564 67.52 511.284 70.8C510.084 74.08 508.844 77.52 507.564 81.12H531.204C529.924 77.52 528.684 74.08 527.484 70.8C526.284 67.52 525.124 64.52 524.004 61.8C522.964 59.08 522.044 56.68 521.244 54.6C520.444 52.52 519.804 50.88 519.324 49.68ZM597.475 99.72C600.115 99.72 602.275 99.52 603.955 99.12C605.715 98.64 607.115 98.04 608.155 97.32C609.195 96.52 609.915 95.6 610.315 94.56C610.715 93.52 610.915 92.36 610.915 91.08C610.915 88.36 609.635 86.12 607.075 84.36C604.515 82.52 600.115 80.56 593.875 78.48C591.155 77.52 588.435 76.44 585.715 75.24C582.995 73.96 580.555 72.4 578.395 70.56C576.235 68.64 574.475 66.36 573.115 63.72C571.755 61 571.075 57.72 571.075 53.88C571.075 50.04 571.795 46.6 573.235 43.56C574.675 40.44 576.715 37.8 579.355 35.64C581.995 33.48 585.195 31.84 588.955 30.72C592.715 29.52 596.955 28.92 601.675 28.92C607.275 28.92 612.115 29.52 616.195 30.72C620.275 31.92 623.635 33.24 626.275 34.68L620.875 49.44C618.555 48.24 615.955 47.2 613.075 46.32C610.275 45.36 606.875 44.88 602.875 44.88C598.395 44.88 595.155 45.52 593.155 46.8C591.235 48 590.275 49.88 590.275 52.44C590.275 53.96 590.635 55.24 591.355 56.28C592.075 57.32 593.075 58.28 594.355 59.16C595.715 59.96 597.235 60.72 598.915 61.44C600.675 62.08 602.595 62.76 604.675 63.48C608.995 65.08 612.755 66.68 615.955 68.28C619.155 69.8 621.795 71.6 623.875 73.68C626.035 75.76 627.635 78.2 628.675 81C629.715 83.8 630.235 87.2 630.235 91.2C630.235 98.96 627.515 105 622.075 109.32C616.635 113.56 608.435 115.68 597.475 115.68C593.795 115.68 590.475 115.44 587.515 114.96C584.555 114.56 581.915 114.04 579.595 113.4C577.355 112.76 575.395 112.08 573.715 111.36C572.115 110.64 570.755 109.96 569.635 109.32L574.915 94.44C577.395 95.8 580.435 97.04 584.035 98.16C587.715 99.2 592.195 99.72 597.475 99.72Z" fill="white"/>
<path d="M572.408 143.452C572.408 144.004 572.228 144.472 571.868 144.856C571.532 145.24 571.052 145.432 570.428 145.432C569.804 145.432 569.312 145.24 568.952 144.856C568.616 144.472 568.448 144.004 568.448 143.452C568.448 142.9 568.616 142.432 568.952 142.048C569.312 141.664 569.804 141.472 570.428 141.472C571.052 141.472 571.532 141.664 571.868 142.048C572.228 142.432 572.408 142.9 572.408 143.452ZM577.955 127.036C578.651 126.844 579.587 126.628 580.763 126.388C581.939 126.148 583.379 126.028 585.083 126.028C586.499 126.028 587.675 126.232 588.611 126.64C589.571 127.048 590.327 127.636 590.879 128.404C591.455 129.148 591.863 130.048 592.103 131.104C592.343 132.16 592.463 133.324 592.463 134.596V145H590.123V135.352C590.123 134.032 590.027 132.916 589.835 132.004C589.667 131.092 589.367 130.348 588.935 129.772C588.527 129.196 587.975 128.788 587.279 128.548C586.607 128.284 585.755 128.152 584.723 128.152C583.619 128.152 582.659 128.212 581.843 128.332C581.051 128.452 580.535 128.56 580.295 128.656V145H577.955V127.036ZM597.335 135.676C597.335 134.044 597.563 132.628 598.019 131.428C598.499 130.204 599.111 129.184 599.855 128.368C600.623 127.552 601.487 126.952 602.447 126.568C603.431 126.16 604.439 125.956 605.471 125.956C607.751 125.956 609.563 126.7 610.907 128.188C612.275 129.676 612.959 131.968 612.959 135.064C612.959 135.256 612.947 135.448 612.923 135.64C612.923 135.832 612.911 136.012 612.887 136.18H599.819C599.891 138.46 600.455 140.212 601.511 141.436C602.567 142.66 604.247 143.272 606.551 143.272C607.823 143.272 608.831 143.152 609.575 142.912C610.319 142.672 610.859 142.468 611.195 142.3L611.627 144.316C611.291 144.508 610.655 144.736 609.719 145C608.807 145.264 607.727 145.396 606.479 145.396C604.847 145.396 603.455 145.156 602.303 144.676C601.151 144.196 600.203 143.524 599.459 142.66C598.715 141.796 598.175 140.776 597.839 139.6C597.503 138.4 597.335 137.092 597.335 135.676ZM610.547 134.2C610.499 132.256 610.043 130.744 609.179 129.664C608.315 128.584 607.091 128.044 605.507 128.044C604.667 128.044 603.911 128.212 603.239 128.548C602.591 128.884 602.015 129.34 601.511 129.916C601.031 130.468 600.647 131.116 600.359 131.86C600.095 132.604 599.939 133.384 599.891 134.2H610.547ZM620.37 126.388H627.786V128.368H620.37V138.268C620.37 139.324 620.454 140.188 620.622 140.86C620.814 141.508 621.078 142.012 621.414 142.372C621.75 142.732 622.158 142.972 622.638 143.092C623.118 143.212 623.646 143.272 624.222 143.272C625.206 143.272 625.998 143.164 626.598 142.948C627.198 142.708 627.666 142.492 628.002 142.3L628.578 144.244C628.242 144.46 627.654 144.712 626.814 145C625.974 145.264 625.062 145.396 624.078 145.396C622.926 145.396 621.954 145.252 621.162 144.964C620.394 144.652 619.77 144.196 619.29 143.596C618.834 142.972 618.51 142.204 618.318 141.292C618.126 140.38 618.03 139.3 618.03 138.052V120.916L620.37 120.484V126.388Z" fill="white"/>
</svg>
